<?xml version="1.0" encoding="UTF-8"?>
<svg width="256px" height="256px" viewBox="0 0 256 256" version="1.1" xmlns="http://www.w3.org/2000/svg"
    xmlns:xlink="http://www.w3.org/1999/xlink">
    <title>feature-icon-customizable2</title>
    <g id="feature-icon-customizable2" stroke="none" stroke-width="1" fill="none" fill-rule="evenodd">
        <rect id="矩形" stroke="#EAEAEA" stroke-width="8" fill="#FFFFFF" x="34" y="34" width="188" height="188" rx="20">
        </rect>
        <rect id="矩形备份-4" fill="#E6E6E6"
            transform="translate(128.292893, 128.207107) rotate(-315.000000) translate(-128.292893, -128.207107) "
            x="124.292893" y="88.7071068" width="8" height="79"></rect>
        <path
            d="M135.786674,41.2762949 C136.754311,41.7601134 137.538924,42.5447258 138.022742,43.5123628 L157.706024,82.878926 C158.261446,83.9897695 158.550606,85.214674 158.550606,86.4566347 L158.550606,196.153877 C158.550606,200.572155 154.968884,204.153877 150.550606,204.153877 L116.550606,204.153877 C112.132328,204.153877 108.550606,200.572155 108.550606,196.153877 L108.550606,86.4566347 C108.550606,85.214674 108.839767,83.9897695 109.395189,82.878926 L129.07847,43.5123628 C130.313417,41.0424703 133.316782,40.0413486 135.786674,41.2762949 Z M150.550606,176.592336 L116.550606,176.592336 L116.550606,193.153877 C116.550606,194.810732 117.893752,196.153877 119.550606,196.153877 L147.550606,196.153877 C149.207461,196.153877 150.550606,194.810732 150.550606,193.153877 L150.550606,176.592336 Z M150.550606,94.5673355 L116.550606,94.5673355 L116.550606,168.592336 L150.550606,168.592336 L150.550606,94.5673355 Z M133.550606,52.4560909 L116.550606,86.4566347 L116.550606,86.5673355 L150.550606,86.5673355 L150.550606,86.4566347 L133.550606,52.4560909 Z"
            id="矩形" fill="#3366FF" fill-rule="nonzero"
            transform="translate(133.550606, 122.450606) rotate(45.000000) translate(-133.550606, -122.450606) "></path>
        <g id="编组-2"
            transform="translate(128.100000, 128.298990) rotate(-45.000000) translate(-128.100000, -128.298990) translate(103.100000, 52.982756)">
            <path
                d="M29,121.095454 C31.209139,121.095454 33,122.886315 33,125.095454 C33,127.304593 31.209139,129.095454 29,129.095454 L8,129.095454 L8,121.095454 L29,121.095454 Z M29,22.1005051 C31.209139,22.1005051 33,23.8913661 33,26.1005051 C33,28.3096441 31.209139,30.1005051 29,30.1005051 L8,30.1005051 L8,22.1005051 L29,22.1005051 Z"
                id="形状结合" fill="#E6E6E6"></path>
            <path
                d="M50,107.422 L50,142.632468 C50,147.050746 46.418278,150.632468 42,150.632468 L8,150.632468 C3.581722,150.632468 -1.8189894e-12,147.050746 -1.8189894e-12,142.632468 L-1.8189894e-12,107.422 L8,107.422 L8,139.632468 C8,141.289322 9.34314575,142.632468 11,142.632468 L39,142.632468 C40.6568542,142.632468 42,141.289322 42,139.632468 L42,107.422 L50,107.422 Z M42,4.54747351e-13 C46.418278,4.54747351e-13 50,3.581722 50,8 L50,42.422 L42,42.422 L42,11 C42,9.34314575 40.6568542,8 39,8 L11,8 C9.34314575,8 8,9.34314575 8,11 L8,42.422 L-1.8189894e-12,42.422 L-1.8189894e-12,8 C-1.8189894e-12,3.581722 3.581722,4.54747351e-13 8,4.54747351e-13 L42,4.54747351e-13 Z"
                id="形状结合" fill="#3366FF" fill-rule="nonzero"></path>
        </g>
    </g>
</svg>