<?xml version="1.0" encoding="UTF-8"?>
<svg width="512px" height="512px" viewBox="0 0 512 512" version="1.1" xmlns="http://www.w3.org/2000/svg" xmlns:xlink="http://www.w3.org/1999/xlink">
    <title>basic/avatar blue</title>
    <g id="basic/avatar-blue" stroke="none" stroke-width="1" fill="none" fill-rule="evenodd">
        <circle id="椭圆形" fill="#4680FF" cx="256" cy="256" r="256"></circle>
        <g id="basic/logo" transform="translate(31.000000, 173.000000)" fill="#FFFFFF">
            <path d="M225,0 L262.5,18.7652174 L262.5,147.234783 L225,166 L187.5,147.234783 L187.5,18.7652174 L225,0 Z M173.076923,40.4173913 L173.076923,119.808696 L103.846154,85.1652174 L103.846154,40.4173913 L173.076923,40.4173913 Z M89.4230769,73.6173913 L89.4230769,93.826087 L141.346154,119.808696 L80.7692308,119.808696 L80.7692308,114.034783 L0,73.6173913 L89.4230769,73.6173913 Z M450,73.6173913 L369.230769,114.034783 L369.230769,119.808696 L308.653846,119.808696 L360.576923,93.826087 L360.576923,73.6173913 L450,73.6173913 Z M346.153846,40.4173913 L346.153846,85.1652174 L276.923077,119.808696 L276.923077,40.4173913 L346.153846,40.4173913 Z" id="形状结合"></path>
        </g>
    </g>
</svg>