<?xml version="1.0" encoding="UTF-8"?>
<svg width="256px" height="256px" viewBox="0 0 256 256" version="1.1" xmlns="http://www.w3.org/2000/svg" xmlns:xlink="http://www.w3.org/1999/xlink">
    <title>feature-icon-types</title>
    <g id="feature-icon-types" stroke="none" stroke-width="1" fill="none" fill-rule="evenodd">
        <rect id="矩形" stroke="#EAEAEA" stroke-width="8" fill="#FFFFFF" x="34" y="34" width="188" height="188" rx="20"></rect>
        <path d="M180.827897,133.980312 L181.284988,134.010165 L181.441726,134.024465 C188.044288,134.758083 194.283357,136.960107 200.119996,140.608007 C201.993342,141.778848 202.562835,144.24665 201.391993,146.119996 C200.221152,147.993342 197.75335,148.562835 195.880004,147.391993 C191.235747,144.489333 186.347188,142.715362 181.179712,142.050052 L180.626,141.983 L180.315451,141.963781 C173.178986,141.54355 169.04072,143.756832 166.979677,148.795485 L166.865,149.084 L166.861495,149.104749 C166.002947,153.882297 167.570977,157.462002 171.924439,160.471971 L172.218801,160.671799 L173.030883,161.206617 L173.544731,161.53675 L174.04158,161.848267 L174.525747,162.143323 L175.001544,162.424074 L175.70899,162.823091 L176.182745,163.077506 C176.262145,163.119285 176.341826,163.160782 176.421878,163.202042 L176.907353,163.44712 C176.989246,163.487613 177.071689,163.527958 177.154773,163.568201 L177.661675,163.808791 L178.188257,164.049083 L178.738833,164.291232 L179.317719,164.537393 L179.929228,164.789721 L180.577677,165.050372 L182.002651,165.605258 L184.068513,166.384063 L184.997257,166.729005 C185.329333,166.851996 185.649235,166.972048 185.958227,167.089876 L186.853739,167.437401 C187.142176,167.551495 187.420966,167.664078 187.691375,167.775866 L188.478716,168.109558 C190.263068,168.885937 191.698611,169.658339 193.218801,170.671799 C200.766061,175.703305 204.295344,184.526514 201.846096,193.098885 C199.172669,202.45588 189.97295,208.117245 178.601985,206.980149 C171.112449,206.231195 163.73741,202.912428 156.50122,197.123475 C154.776172,195.743437 154.496487,193.226268 155.876525,191.50122 C157.256563,189.776172 159.773732,189.496487 161.49878,190.876525 C167.595923,195.754239 173.554217,198.435471 179.398015,199.019851 C187.059308,199.785981 192.587331,196.38412 194.153904,190.901115 C195.621322,185.765152 193.506666,180.478513 188.781199,177.328201 C187.37655,176.391768 186.00727,175.707172 183.912613,174.877444 L183.034259,174.536871 L179.866948,173.352076 L178.228969,172.723702 L177.479382,172.428431 L176.429735,172.003029 L175.45695,171.592082 L174.844007,171.32251 C174.743926,171.277722 174.644822,171.232975 174.546608,171.188222 L173.96728,170.91928 L173.405022,170.648029 L172.85556,170.372287 C172.764812,170.325834 172.67442,170.279103 172.584293,170.232048 L172.046014,169.945473 C171.956595,169.896942 171.867265,169.847997 171.777934,169.798591 L171.241223,169.496272 C171.151532,169.444844 171.061662,169.392864 170.971524,169.340289 L170.426768,169.017312 L169.871307,168.677835 L169.300867,168.319674 L168.407778,167.742624 L167.781199,167.328201 C160.457633,162.445824 157.420173,155.503058 159.077677,147.215535 C159.117279,147.017526 159.171818,146.822801 159.240826,146.633028 C162.513602,137.632894 170.055509,133.343197 180.827897,133.980312 Z M142,135 C144.209139,135 146,136.790861 146,139 C146,141.142195 144.316032,142.891079 142.19964,142.995105 L142,143 L121,143 L121,203 C121,205.209139 119.209139,207 117,207 C114.857805,207 113.108921,205.316032 113.004895,203.19964 L113,203 L113,143 L92,143 C89.790861,143 88,141.209139 88,139 C88,136.857805 89.6839685,135.108921 91.8003597,135.004895 L92,135 L142,135 Z" id="路径-18" fill="#3366FF" fill-rule="nonzero"></path>
    </g>
</svg>